<svg width="699" height="201" viewBox="0 0 699 201" fill="none" xmlns="http://www.w3.org/2000/svg">
<g clip-path="url(#clip0_32_22)">
<path d="M625.849 109.895C625.849 126.269 615.753 138.402 596.582 138.402C577.411 138.402 567.1 126.269 567.1 109.895V66.9463H582.512V109.036C581.814 116.767 587.56 123.531 595.239 124.229C602.972 124.927 609.739 119.183 610.437 111.506C610.49 110.7 610.49 109.895 610.437 109.036V67.0537H625.849V109.895Z" fill="#898A8D"/>
<path d="M657.103 106.781L630.897 66.9463H650.014L664.889 92.9303L680.409 67.0537H698.559L672.461 106.781V136.523H657.103V106.781Z" fill="#898A8D"/>
<path d="M300.746 109.412H313.311V120.74C308.908 123.102 303.968 124.283 298.973 124.283C287.374 124.551 277.762 115.425 277.439 103.829C277.439 103.184 277.439 102.486 277.439 101.842C276.741 90.1924 285.602 80.1531 297.255 79.4552C297.792 79.4552 298.383 79.4552 298.92 79.4552C302.034 79.2404 305.203 79.7236 308.102 80.851C311.002 82.0321 313.634 83.9111 315.782 86.2196L326.522 74.4087C318.843 68.0201 309.069 64.7989 299.081 65.3895C277.601 65.3895 261.49 79.7236 261.49 101.896C261.49 124.068 277.601 138.456 299.081 138.456C309.23 138.617 319.272 136.255 328.294 131.638V95.3462H300.907V109.466H300.692L300.746 109.412Z" fill="#898A8D"/>
<path d="M354.661 62.2756H339.786V136.631H354.661V62.2756Z" fill="#898A8D"/>
<path d="M416.417 112.687C417.276 98.0841 406.106 85.5216 391.5 84.6626C376.893 83.8037 364.327 94.9703 363.468 109.573C362.609 124.175 373.778 136.738 388.385 137.597C388.922 137.597 389.405 137.597 389.942 137.597C403.475 138.671 415.289 128.578 416.363 115.103C416.417 114.297 416.47 113.492 416.417 112.633V112.687ZM378.074 110.969C378.074 104.419 383.391 99.1041 389.942 99.1041C396.494 99.1041 401.81 104.419 401.81 110.969C401.917 112.633 401.703 114.244 401.166 115.8C400.629 117.304 399.769 118.699 398.642 119.827C397.514 120.954 396.171 121.867 394.668 122.457C393.164 123.048 391.607 123.316 389.996 123.209C386.72 123.478 383.552 122.243 381.296 119.881C380.169 118.753 379.309 117.357 378.772 115.854C378.182 114.297 377.967 112.633 378.074 110.969Z" fill="#898A8D"/>
<path d="M456.477 87.7227C450.678 87.2396 445.039 89.6018 441.334 94.0577V62.2756H426.459V136.631H440.098V130.296C441.817 132.55 443.965 134.376 446.489 135.664C449.013 136.953 451.859 137.651 454.705 137.704C467.378 138.026 477.85 127.987 478.172 115.317C478.172 114.566 478.172 113.76 478.118 113.009C478.387 99.8558 470.063 87.7227 456.477 87.7227ZM451.913 124.766C450.302 124.873 448.744 124.605 447.241 124.014C445.737 123.424 444.395 122.511 443.267 121.384C442.193 120.203 441.334 118.861 440.743 117.357C440.206 115.854 439.991 114.297 440.098 112.687C440.098 109.519 441.334 106.513 443.589 104.312C448.154 99.6947 455.618 99.6947 460.236 104.258C460.236 104.258 460.236 104.258 460.29 104.312C462.545 106.513 463.78 109.519 463.78 112.687C463.942 114.297 463.727 115.908 463.136 117.411C462.599 118.914 461.74 120.31 460.612 121.437C458.357 123.8 455.188 125.034 451.913 124.766Z" fill="#898A8D"/>
<path d="M530.584 136.631V112.418C530.584 96.5809 526.019 87.7227 508.62 87.7227C500.941 87.5079 493.477 90.2459 487.731 95.2924L495.517 103.345C496.967 101.574 498.793 100.124 500.888 99.1041C502.982 98.0841 505.291 97.5472 507.6 97.5472C508.782 97.4935 509.963 97.6546 511.091 98.0304C512.218 98.4062 513.239 99.0504 514.098 99.8557C515.87 101.466 516.837 103.775 516.89 106.137C504.539 106.137 484.67 106.405 484.67 122.994C484.67 132.604 492.725 137.651 501.532 137.651C504.432 137.812 507.385 137.275 510.017 136.04C512.648 134.859 514.957 132.98 516.676 130.671V136.738L530.584 136.631ZM505.882 127.772C502.606 127.772 498.793 126.054 498.793 122.404C498.793 115.854 508.889 115.586 513.453 115.586H516.944V118.646C516.944 124.766 511.681 127.772 505.882 127.772Z" fill="#898A8D"/>
<path d="M555.018 62.2756H540.143V136.631H555.018V62.2756Z" fill="#898A8D"/>
<path d="M231.687 79.9383C231.794 35.9159 196.191 0.10737 152.156 -1.85581e-06C108.122 -0.107374 72.3033 35.4864 72.1959 79.5088C72.1422 102.218 81.7546 123.853 98.6166 138.993L134.864 179.794V196.437C134.864 197.027 135.026 197.618 135.24 198.155C135.67 199.282 136.583 200.195 137.711 200.624C138.248 200.839 138.838 201 139.429 201H164.883C165.474 201 166.065 200.839 166.655 200.624C167.192 200.409 167.676 200.087 168.105 199.658C168.535 199.228 168.857 198.745 169.072 198.155C169.34 197.618 169.448 197.027 169.448 196.437V179.794L205.481 138.993C222.02 123.8 231.525 102.433 231.687 79.9383ZM81.325 81.9784H111.558C112.042 111.452 120.902 136.362 134.005 148.227C103.611 140.335 82.1305 113.331 81.325 81.9784ZM145.766 9.39503C147.162 9.28766 148.612 9.28766 150.008 9.39503V77.4151H116.016C116.553 43.1635 129.119 15.1931 145.497 9.1266L145.766 9.39503ZM187.813 77.6835H154.143V8.85817C155.593 8.7508 156.989 8.7508 158.439 8.85817C174.71 15.1931 187.061 43.1635 187.545 77.4151L187.813 77.6835ZM158.332 149.73C156.935 149.945 155.485 150.052 154.036 149.998V81.7099H187.545C187.061 115.962 174.71 144.361 158.332 149.73ZM149.525 81.7099V150.213C148.075 150.213 146.625 150.213 145.229 149.945C129.119 144.361 116.553 115.962 116.016 81.7099H149.525ZM192.109 81.7099H222.611C221.483 113.062 200.003 139.959 169.662 147.958C182.765 136.094 191.733 111.398 192.109 81.7099ZM222.611 77.4151H192.109C191.733 47.7268 182.765 23.246 169.662 11.1667C200.057 19.0585 221.591 46.0625 222.611 77.4151ZM133.898 11.1667C120.795 22.9776 111.934 47.9415 111.451 77.4151H81.2176C82.1305 46.1162 103.557 19.1122 133.898 11.1667ZM159.835 192.034H143.725V184.733H159.835V192.034ZM163.379 175.66H140.181L119.506 152.468C129.656 156.978 140.61 159.286 151.726 159.286C162.842 159.232 173.797 156.924 183.947 152.468L163.379 175.66Z" fill="#898A8D"/>
<path d="M61.2947 130.296H39.8144C37.2905 130.296 35.3036 132.336 35.3036 134.859C35.3036 136.094 35.7869 137.221 36.6461 138.08C37.5053 138.885 38.633 139.369 39.8144 139.369H61.2947C62.4761 139.369 63.6575 138.885 64.5167 138.08C65.3759 137.221 65.8592 136.094 65.8592 134.859C65.8592 133.624 65.3759 132.497 64.5167 131.638C63.6575 130.779 62.5298 130.296 61.2947 130.296Z" fill="#898A8D"/>
<path d="M55.2265 107.157C55.2265 106.566 55.1191 105.976 54.9043 105.385C54.6895 104.849 54.3673 104.365 53.9377 103.936C53.5081 103.506 53.0248 103.184 52.4341 102.97C51.8971 102.701 51.3064 102.594 50.7157 102.594H23.0062C20.4822 102.594 18.4416 104.634 18.4416 107.157C18.4416 108.338 18.9249 109.519 19.7841 110.325C20.6433 111.183 21.7711 111.667 23.0062 111.667H50.7157C51.3064 111.667 51.8971 111.559 52.4341 111.345C53.0248 111.13 53.5081 110.754 53.9377 110.325C54.3673 109.949 54.6895 109.412 54.9043 108.875C55.1191 108.338 55.2265 107.748 55.2265 107.157Z" fill="#898A8D"/>
<path d="M45.6678 79.9383C45.6678 79.3478 45.5604 78.7572 45.3456 78.2204C45.1308 77.6298 44.7549 77.1467 44.3253 76.7172C43.9494 76.2877 43.4124 75.9656 42.8754 75.7508C42.3384 75.5361 41.7477 75.4287 41.157 75.4287H5.12387C3.94246 75.4287 2.76105 75.9119 1.90184 76.7172C1.04263 77.5761 0.559326 78.7036 0.559326 79.9383C0.559326 82.4616 2.59995 84.5016 5.12387 84.5016H41.3718C42.5532 84.3943 43.6809 83.9111 44.4864 83.0521C45.2382 82.1931 45.6678 81.0657 45.6678 79.9383Z" fill="#898A8D"/>
</g>
<defs>
<clipPath id="clip0_32_22">
<rect width="698" height="201" fill="white" transform="translate(0.559326)"/>
</clipPath>
</defs>
</svg>
