<svg width="366" height="37" viewBox="0 0 366 37" fill="none" xmlns="http://www.w3.org/2000/svg">
<path d="M14.5607 6.67037H6.22331V18.6305H14.3622C16.1487 18.6305 17.5052 18.0515 18.4316 16.8936C19.358 15.7025 19.8211 14.2964 19.8211 12.6753C19.8211 11.0541 19.3745 9.648 18.4812 8.45695C17.5879 7.2659 16.2811 6.67037 14.5607 6.67037ZM0.913203 36V1.80691H14.6599C18.1007 1.80691 20.6979 2.86563 22.4514 4.98305C24.2049 7.10047 25.0816 9.66454 25.0816 12.6753C25.0816 15.686 24.2049 18.2335 22.4514 20.3178C20.731 22.4022 18.1338 23.4443 14.6599 23.4443H6.22331V36H0.913203ZM34.9853 27.6626V36H29.8737V12.8241H34.9853V18.1342C36.1102 14.2633 38.2276 12.3279 41.3376 12.3279C43.1903 12.3279 44.5634 12.6256 45.4566 13.2212L44.613 17.9357C43.5543 17.4064 42.4128 17.1417 41.1887 17.1417C39.1044 17.1417 37.5494 18.0846 36.5238 19.9704C35.4981 21.8563 34.9853 24.4203 34.9853 27.6626ZM65.328 25.2805V12.8241H70.4396V36H65.328V32.6254C64.6994 33.8495 63.7234 34.8089 62.4 35.5037C61.0767 36.1654 59.7533 36.4963 58.4299 36.4963C55.5846 36.4963 53.3679 35.6195 51.7798 33.866C50.1918 32.0795 49.4143 29.565 49.4474 26.3227V12.8241H54.559V25.7272C54.559 27.5799 55.0056 29.0191 55.8989 30.0447C56.7922 31.0373 57.9501 31.5336 59.3728 31.5336C61.0601 31.5336 62.4662 31.0373 63.5911 30.0447C64.7491 29.0191 65.328 27.4311 65.328 25.2805ZM99.5967 24.3376C99.5967 25.264 99.5802 25.8926 99.5471 26.2235H81.1354C81.367 28.01 82.128 29.4327 83.4183 30.4914C84.7417 31.517 86.3463 32.0298 88.2321 32.0298C89.5555 32.0298 90.7796 31.7486 91.9045 31.1862C93.0625 30.5906 93.9392 29.7635 94.5348 28.7048C95.031 28.9364 95.7754 29.2838 96.768 29.747C97.7936 30.1771 98.4388 30.4418 98.7034 30.541C97.7109 32.493 96.2552 33.9818 94.3363 35.0075C92.4173 36 90.2999 36.4963 87.984 36.4963C84.6093 36.4963 81.7806 35.3714 79.4977 33.1216C77.2149 30.8719 76.0735 27.9439 76.0735 24.3376C76.0735 20.7314 77.2149 17.8365 79.4977 15.6529C81.7806 13.4362 84.6093 12.3279 87.984 12.3279C91.3586 12.3279 94.1377 13.4362 96.3213 15.6529C98.5049 17.8365 99.5967 20.7314 99.5967 24.3376ZM81.1354 22.5014H94.5844C94.3528 20.7148 93.6249 19.3253 92.4008 18.3327C91.2097 17.3071 89.7375 16.7943 87.984 16.7943C86.1643 16.7943 84.6259 17.3071 83.3687 18.3327C82.1114 19.3584 81.367 20.7479 81.1354 22.5014ZM110.154 24.3376C110.154 26.5212 110.832 28.2747 112.189 29.5981C113.578 30.8884 115.266 31.5336 117.251 31.5336C119.203 31.5336 120.857 30.8553 122.214 29.4988C123.57 28.1424 124.248 26.422 124.248 24.3376C124.248 22.2533 123.57 20.566 122.214 19.2757C120.89 17.9523 119.236 17.2906 117.251 17.2906C115.365 17.2906 113.711 17.9357 112.288 19.226C110.865 20.4833 110.154 22.1871 110.154 24.3376ZM110.105 36H104.993V0.218845H110.105V16.1492C110.799 14.925 111.841 13.9821 113.231 13.3204C114.654 12.6587 116.209 12.3279 117.896 12.3279C121.138 12.3279 123.868 13.4362 126.084 15.6529C128.334 17.8696 129.459 20.7976 129.459 24.4369C129.459 27.9769 128.318 30.8719 126.035 33.1216C123.785 35.3714 121.056 36.4963 117.846 36.4963C116.225 36.4963 114.703 36.1654 113.281 35.5037C111.858 34.8089 110.799 33.8495 110.105 32.6254V36ZM153.25 36V32.675C152.522 33.866 151.414 34.8089 149.925 35.5037C148.47 36.1654 146.981 36.4963 145.459 36.4963C142.216 36.4963 139.437 35.3714 137.121 33.1216C134.839 30.8719 133.697 27.9604 133.697 24.3873C133.697 20.8141 134.839 17.9192 137.121 15.7025C139.437 13.4527 142.216 12.3279 145.459 12.3279C146.981 12.3279 148.47 12.6587 149.925 13.3204C151.381 13.949 152.489 14.8754 153.25 16.0995V12.8241H158.312V36H153.25ZM140.992 19.2757C139.636 20.566 138.958 22.2533 138.958 24.3376C138.958 26.422 139.636 28.1424 140.992 29.4988C142.382 30.8553 144.069 31.5336 146.054 31.5336C148.039 31.5336 149.727 30.8884 151.116 29.5981C152.506 28.2747 153.201 26.5212 153.201 24.3376C153.201 22.1871 152.473 20.4833 151.017 19.226C149.594 17.9357 147.94 17.2906 146.054 17.2906C144.069 17.2906 142.382 17.9523 140.992 19.2757ZM184.23 6.72V31.1365H192.27C195.512 31.1365 198.01 29.9951 199.764 27.7123C201.517 25.4294 202.394 22.518 202.394 18.9779C202.394 15.4047 201.501 12.4767 199.714 10.1939C197.961 7.87796 195.479 6.72 192.27 6.72H184.23ZM192.27 36H178.97V1.80691H192.27C197.001 1.80691 200.74 3.42807 203.486 6.67037C206.265 9.87959 207.654 13.9821 207.654 18.9779C207.654 23.9406 206.281 28.0266 203.535 31.2358C200.789 34.4119 197.034 36 192.27 36ZM235.538 24.3376C235.538 25.264 235.522 25.8926 235.489 26.2235H217.077C217.309 28.01 218.069 29.4327 219.36 30.4914C220.683 31.517 222.288 32.0298 224.174 32.0298C225.497 32.0298 226.721 31.7486 227.846 31.1862C229.004 30.5906 229.881 29.7635 230.476 28.7048C230.973 28.9364 231.717 29.2838 232.709 29.747C233.735 30.1771 234.38 30.4418 234.645 30.541C233.652 32.493 232.197 33.9818 230.278 35.0075C228.359 36 226.241 36.4963 223.925 36.4963C220.551 36.4963 217.722 35.3714 215.439 33.1216C213.156 30.8719 212.015 27.9439 212.015 24.3376C212.015 20.7314 213.156 17.8365 215.439 15.6529C217.722 13.4362 220.551 12.3279 223.925 12.3279C227.3 12.3279 230.079 13.4362 232.263 15.6529C234.446 17.8365 235.538 20.7314 235.538 24.3376ZM217.077 22.5014H230.526C230.294 20.7148 229.566 19.3253 228.342 18.3327C227.151 17.3071 225.679 16.7943 223.925 16.7943C222.106 16.7943 220.567 17.3071 219.31 18.3327C218.053 19.3584 217.309 20.7479 217.077 22.5014ZM247.296 36L237.619 12.8241H243.028L249.678 29.4988L256.229 12.8241H261.688L252.011 36H247.296ZM276.936 26.5708V21.9555H294.256V26.5708H276.936ZM312.635 26.0746H317.896C317.962 27.5303 318.624 28.8372 319.881 29.9951C321.138 31.12 322.743 31.6824 324.695 31.6824C326.614 31.6824 328.119 31.2358 329.211 30.3425C330.303 29.4492 330.948 28.3409 331.146 27.0175C331.312 24.2053 329.509 22.3525 325.737 21.4593L321.419 20.3675C315.762 18.8456 312.933 15.7852 312.933 11.1864C312.933 8.34115 314.042 6.00868 316.258 4.18901C318.475 2.33627 321.122 1.4099 324.199 1.4099C327.408 1.4099 330.055 2.33627 332.139 4.18901C334.256 6.00868 335.315 8.45695 335.315 11.5338H330.055C330.055 9.97885 329.509 8.73817 328.417 7.81179C327.325 6.85234 325.886 6.37261 324.099 6.37261C322.478 6.37261 321.089 6.81925 319.931 7.71254C318.773 8.57274 318.194 9.69762 318.194 11.0872C318.194 13.2708 319.716 14.7596 322.759 15.5536L327.127 16.695C330.501 17.5883 332.95 18.9614 334.471 20.8141C335.993 22.6338 336.622 24.8008 336.357 27.3153C336.093 30.0282 334.885 32.2449 332.734 33.9653C330.617 35.6526 327.937 36.4963 324.695 36.4963C321.221 36.4963 318.343 35.4706 316.06 33.4194C313.777 31.3681 312.635 28.9199 312.635 26.0746ZM347.045 27.6626V36H341.933V12.8241H347.045V18.1342C348.17 14.2633 350.287 12.3279 353.397 12.3279C355.25 12.3279 356.623 12.6256 357.516 13.2212L356.673 17.9357C355.614 17.4064 354.472 17.1417 353.248 17.1417C351.164 17.1417 349.609 18.0846 348.583 19.9704C347.558 21.8563 347.045 24.4203 347.045 27.6626ZM359.49 35.5534C358.828 34.9247 358.498 34.1307 358.498 33.1713C358.498 32.2118 358.828 31.4178 359.49 30.7892C360.185 30.1275 361.012 29.7966 361.971 29.7966C362.964 29.7966 363.791 30.1275 364.453 30.7892C365.148 31.4178 365.495 32.2118 365.495 33.1713C365.495 34.1307 365.148 34.9247 364.453 35.5534C363.791 36.182 362.964 36.4963 361.971 36.4963C361.012 36.4963 360.185 36.182 359.49 35.5534Z" fill="white"/>
</svg>
