<svg width="192" height="54" viewBox="0 0 192 54" fill="none" xmlns="http://www.w3.org/2000/svg">
<path d="M26.553 37.3242L36.3214 48.2964C36.3214 48.3434 36.3077 48.3888 36.3077 48.4358V52.7965C36.3077 53.1157 36.435 53.4218 36.6616 53.6475C36.8882 53.8731 37.1957 54 37.5161 54H44.3104C44.6309 54 44.9384 53.8731 45.1649 53.6475C45.3916 53.4218 45.519 53.1157 45.519 52.7965V48.4358C45.5172 48.3932 45.5131 48.3507 45.5068 48.3085L55.2842 37.3257C57.5296 35.3211 59.3256 32.8678 60.555 30.1256C61.7844 27.3834 62.4197 24.4139 62.4194 21.4108C62.4194 9.60501 52.7729 0 40.9194 0C29.0659 0 19.4194 9.60653 19.4194 21.4123C19.4183 24.4154 20.0531 27.3849 21.2823 30.1272C22.5115 32.8695 24.3075 35.3229 26.553 37.3272V37.3242ZM43.102 51.5961H38.7246V49.6409H43.102V51.5961ZM45.7457 39.8009C49.2646 36.5921 51.6633 29.9352 51.7805 22.0171H59.9857C59.8506 26.1129 58.3918 30.0559 55.8262 33.2599C53.2606 36.464 49.7253 38.758 45.7457 39.8009ZM59.9857 20.8136H51.7805C51.6633 12.8956 49.2646 6.23712 45.7457 3.02989C49.7253 4.07282 53.2606 6.36681 55.8262 9.57084C58.3918 12.7749 59.8506 16.7178 59.9857 20.8136ZM41.5237 2.42361C41.9057 2.43725 42.2846 2.45847 42.6605 2.49333C47.0607 4.09543 50.4229 11.6558 50.5751 20.8106H41.5237V2.42361ZM41.5237 22.0141H50.572C50.4289 31.1689 47.0607 38.7293 42.6575 40.3329C42.2816 40.3663 41.8966 40.3875 41.5206 40.3995L41.5237 22.0141ZM49.5903 40.9952L44.0426 47.2324H37.8023L32.2484 40.9952C34.9808 42.1998 37.9358 42.822 40.9239 42.822C43.9121 42.822 46.8672 42.1998 49.5995 40.9952H49.5903ZM31.2683 22.0141H40.3152V40.3995C39.9331 40.3875 39.5541 40.3663 39.1782 40.3329C34.7766 38.7293 31.4159 31.1689 31.2637 22.0141H31.2683ZM39.1782 2.49333C39.5541 2.45847 39.9393 2.43725 40.3152 2.42361V20.8106H31.2683C31.4098 11.6558 34.769 4.09543 39.1828 2.49333H39.1782ZM36.0916 3.0208C32.5665 6.23409 30.174 12.8926 30.0598 20.8106H21.8516C21.9856 16.7138 23.444 12.7696 26.0096 9.5644C28.5752 6.3592 32.1112 4.06425 36.0916 3.0208ZM30.0598 22.0141C30.174 29.9321 32.5727 36.5891 36.0916 39.7978C32.1123 38.7545 28.5772 36.4604 26.0116 33.2564C23.4462 30.0525 21.9872 26.1098 21.8516 22.0141H30.0598Z" fill="#006EAA"/>
<path d="M9.41937 35.9994C9.42168 36.264 9.54546 36.5172 9.76397 36.7043C9.9825 36.8914 10.2782 36.9973 10.5872 36.9994H16.2101C16.3668 37.0041 16.5232 36.9817 16.6696 36.9337C16.816 36.8856 16.9497 36.8128 17.0625 36.7195C17.1754 36.6262 17.2651 36.5145 17.3265 36.3908C17.3877 36.2672 17.4194 36.1343 17.4194 36C17.4194 35.8657 17.3877 35.7328 17.3265 35.6091C17.2651 35.4855 17.1754 35.3737 17.0625 35.2805C16.9497 35.1872 16.816 35.1144 16.6696 35.0663C16.5232 35.0182 16.3668 34.9959 16.2101 35.0006H10.5872C10.4339 35.0005 10.2821 35.0262 10.1404 35.0763C9.99873 35.1264 9.86996 35.2 9.76151 35.2927C9.65304 35.3855 9.567 35.4956 9.50829 35.6169C9.44958 35.7381 9.41937 35.8681 9.41937 35.9994Z" fill="#006EAA"/>
<path d="M14.2005 30C14.5238 30 14.8338 29.8947 15.0624 29.7071C15.291 29.5196 15.4194 29.2652 15.4194 29C15.4194 28.7348 15.291 28.4804 15.0624 28.2929C14.8338 28.1053 14.5238 28 14.2005 28H6.63829C6.315 28 6.00497 28.1053 5.77639 28.2929C5.54779 28.4804 5.41937 28.7348 5.41937 29C5.41937 29.2652 5.54779 29.5196 5.77639 29.7071C6.00497 29.8947 6.315 30 6.63829 30H14.2005Z" fill="#006EAA"/>
<path d="M12.4074 21.5C12.4074 21.1025 12.2819 20.7213 12.0585 20.4401C11.8351 20.1587 11.532 20.0005 11.2159 20H1.61231C1.29593 20 0.992497 20.158 0.768778 20.4393C0.545057 20.7207 0.419373 21.1021 0.419373 21.5C0.419373 21.8979 0.545057 22.2793 0.768778 22.5607C0.992497 22.842 1.29593 23 1.61231 23H11.228C11.3846 23 11.5396 22.9612 11.6842 22.8858C11.8289 22.8103 11.9603 22.6999 12.0709 22.5606C12.1817 22.4212 12.2693 22.2558 12.3291 22.0739C12.3889 21.8919 12.4196 21.6969 12.4194 21.5" fill="#006EAA"/>
<path d="M171.265 23.2971C171.265 27.8956 168.464 31.308 163.082 31.308C157.699 31.308 154.874 27.8956 154.874 23.2971V11.3214H159.157V23.132C159.157 25.526 160.805 27.3458 163.091 27.3458C165.378 27.3458 166.991 25.526 166.991 23.132V11.3214H171.275L171.265 23.2971Z" fill="#F9A14C"/>
<path d="M179.994 22.4983L172.691 11.3214H178.017L182.136 18.6174L186.503 11.3214H191.581L184.278 22.4983V30.8149H179.994V22.4983Z" fill="#F9A14C"/>
<path d="M80.4501 23.2134H83.9367V26.3793C82.6936 27.0348 81.3061 27.3664 79.9018 27.3433C76.2502 27.3433 73.8602 24.7001 73.8602 21.0683C73.8602 17.4363 76.2502 14.7882 79.9018 14.7882C82.0705 14.7882 83.4695 15.4219 84.6203 16.6325L87.6497 13.3311C85.6998 11.5139 82.9777 10.8259 79.909 10.8259C73.8405 10.8259 69.4194 14.8178 69.4194 21.0683C69.4194 27.3186 73.8454 31.3081 79.909 31.3081C82.7613 31.3081 85.5351 30.7583 88.0627 29.4366V19.2486H80.4501V23.2134Z" fill="#006EAA"/>
<path d="M95.467 10H91.3482V30.815H95.467V10Z" fill="#006EAA"/>
<path d="M112.763 24.1231C112.763 19.8552 109.468 17.101 105.349 17.101C101.23 17.101 97.9354 19.8552 97.9354 24.1231C97.9354 28.3912 101.23 31.1429 105.349 31.1429C109.468 31.1429 112.763 28.3912 112.763 24.1231ZM102.054 24.1231C102.054 22.1136 103.284 20.7353 105.349 20.7353C107.414 20.7353 108.644 22.1136 108.644 24.1231C108.644 26.1327 107.414 27.5085 105.349 27.5085C103.284 27.5085 102.054 26.1327 102.054 24.1231Z" fill="#006EAA"/>
<path d="M123.963 17.1035C122.261 17.1035 120.665 17.5696 119.734 18.864H119.68V10H115.561V30.8124H119.352V29.0496H119.404C120.036 30.0135 121.629 31.1429 123.496 31.1429C127.45 31.1429 130.056 28.2802 130.056 24.2391C130.056 20.5209 127.75 17.1084 123.963 17.1084V17.1035ZM122.645 27.5134C120.584 27.5134 119.352 26.1377 119.352 24.1282C119.352 22.1186 120.582 20.7428 122.645 20.7428C124.708 20.7428 125.937 22.1186 125.937 24.1282C125.937 26.1377 124.708 27.5134 122.645 27.5134Z" fill="#006EAA"/>
<path d="M144.635 30.8124V24.0122C144.635 19.5544 143.344 17.1084 138.539 17.1084C136.373 17.1084 134.175 17.826 132.665 19.256L134.861 21.5096C135.269 21.0148 135.781 20.6155 136.359 20.3395C136.938 20.0635 137.569 19.9176 138.21 19.9119C139.639 19.9119 140.846 20.8488 140.846 22.3085C137.403 22.3085 131.814 22.3923 131.814 27.0154C131.814 29.7152 134.067 31.1453 136.565 31.1453C138.239 31.1453 139.887 30.5684 140.792 29.1358H140.846V30.815L144.635 30.8124ZM137.716 28.3345C136.811 28.3345 135.768 27.866 135.768 26.8748C135.768 25.0602 138.566 24.9491 139.83 24.9491H140.846V25.8294C140.846 27.4813 139.339 28.3345 137.716 28.3345Z" fill="#006EAA"/>
<path d="M151.39 10H147.271V30.815H151.39V10Z" fill="#006EAA"/>
</svg>
